# xmcd CD database file generated by Grip 2.7
# 
# Track frame offsets:
#       150
#       8267
#       26202
#       46730
#       65975
#       83540
#       101732
#       118357
#       131965
#       167600
#       179522
#       195047
#       211815
#       226640
#       242425
#       260085
#       284692
# 
# Disc length: 4248 seconds
# 
# Revision: 3
# Processed by: cddbd v1.4b41PL1 Copyright (c) Steve Scherf et al.
# Submitted via: Grip 2.7
# 
DISCID=e7109611
DTITLE=Janis Joplin - Best of Janis Joplin
DYEAR=1900
DGENRE=
TTITLE0=Mercedes Benz
TTITLE1=Cry Baby
TTITLE2=Me and Bobby McGee
TTITLE3=Piece of my heart
TTITLE4=Try
TTITLE5=Summertime
TTITLE6=Move Over
TTITLE7=Down on me
TTITLE8=Ball and Chain
TTITLE9=Bye, Bye Baby
TTITLE10=Get it while you can
TTITLE11=My baby
TTITLE12=Trust me
TTITLE13=A woman Left Lonely
TTITLE14=Half moon
TTITLE15=Kozmic Blues
TTITLE16=Ego rock
EXTD=
EXTT0=
EXTT1=
EXTT2=
EXTT3=
EXTT4=
EXTT5=
EXTT6=
EXTT7=
EXTT8=
EXTT9=
EXTT10=
EXTT11=
EXTT12=
EXTT13=
EXTT14=
EXTT15=
EXTT16=
PLAYORDER=
